<mxfile host="app.diagrams.net" modified="2021-07-29T03:40:23.132Z" agent="5.0 (Windows NT 10.0; Win64; x64) AppleWebKit/537.36 (KHTML, like Gecko) Chrome/92.0.4515.107 Safari/537.36" etag="_ihxw7n6tAmRz2p9YpQj" version="14.9.3" type="github">
  <diagram name="Page-1" id="5d7acffa-a066-3a61-03fe-96351882024d">
    <mxGraphModel dx="2062" dy="1122" grid="1" gridSize="10" guides="1" tooltips="1" connect="1" arrows="1" fold="1" page="1" pageScale="1" pageWidth="1100" pageHeight="850" background="#ffffff" math="0" shadow="0">
      <root>
        <mxCell id="0" />
        <mxCell id="1" parent="0" />
        <mxCell id="21ea969265ad0168-6" value="login" style="swimlane;html=1;fontStyle=0;childLayout=stackLayout;horizontal=1;startSize=26;fillColor=#dae8fc;horizontalStack=0;resizeParent=1;resizeLast=0;collapsible=1;marginBottom=0;swimlaneFillColor=#ffffff;align=center;rounded=1;shadow=0;comic=0;labelBackgroundColor=none;strokeWidth=1;fontFamily=Verdana;fontSize=12;strokeColor=#6c8ebf;" parent="1" vertex="1">
          <mxGeometry x="40" y="180" width="160" height="140" as="geometry" />
        </mxCell>
        <mxCell id="BpiLgZ1GPIjB9515_VA2-29" value="" style="group" vertex="1" connectable="0" parent="21ea969265ad0168-6">
          <mxGeometry y="26" width="160" height="104" as="geometry" />
        </mxCell>
        <mxCell id="21ea969265ad0168-7" value="username" style="text;html=1;strokeColor=none;fillColor=none;spacingLeft=4;spacingRight=4;whiteSpace=wrap;overflow=hidden;rotatable=0;points=[[0,0.5],[1,0.5]];portConstraint=eastwest;" parent="BpiLgZ1GPIjB9515_VA2-29" vertex="1">
          <mxGeometry width="160" height="26" as="geometry" />
        </mxCell>
        <mxCell id="21ea969265ad0168-8" value="password" style="text;html=1;strokeColor=none;fillColor=none;spacingLeft=4;spacingRight=4;whiteSpace=wrap;overflow=hidden;rotatable=0;points=[[0,0.5],[1,0.5]];portConstraint=eastwest;" parent="BpiLgZ1GPIjB9515_VA2-29" vertex="1">
          <mxGeometry y="26" width="160" height="26" as="geometry" />
        </mxCell>
        <mxCell id="BpiLgZ1GPIjB9515_VA2-4" value="create new account" style="text;html=1;strokeColor=none;fillColor=none;spacingLeft=4;spacingRight=4;whiteSpace=wrap;overflow=hidden;rotatable=0;points=[[0,0.5],[1,0.5]];portConstraint=eastwest;" vertex="1" parent="BpiLgZ1GPIjB9515_VA2-29">
          <mxGeometry y="54" width="160" height="26" as="geometry" />
        </mxCell>
        <mxCell id="BpiLgZ1GPIjB9515_VA2-80" style="edgeStyle=orthogonalEdgeStyle;rounded=0;orthogonalLoop=1;jettySize=auto;html=1;entryX=0;entryY=0.5;entryDx=0;entryDy=0;" edge="1" parent="1" source="BpiLgZ1GPIjB9515_VA2-5" target="BpiLgZ1GPIjB9515_VA2-27">
          <mxGeometry relative="1" as="geometry" />
        </mxCell>
        <mxCell id="BpiLgZ1GPIjB9515_VA2-5" value="user identification&lt;br&gt;" style="shape=parallelogram;perimeter=parallelogramPerimeter;whiteSpace=wrap;html=1;fixedSize=1;fillColor=#d5e8d4;strokeColor=#82b366;" vertex="1" parent="1">
          <mxGeometry x="30" y="470" width="160" height="67.5" as="geometry" />
        </mxCell>
        <mxCell id="BpiLgZ1GPIjB9515_VA2-93" style="edgeStyle=orthogonalEdgeStyle;rounded=0;orthogonalLoop=1;jettySize=auto;html=1;" edge="1" parent="1" source="BpiLgZ1GPIjB9515_VA2-21">
          <mxGeometry relative="1" as="geometry">
            <mxPoint x="640" y="360" as="targetPoint" />
            <Array as="points">
              <mxPoint x="520" y="420" />
              <mxPoint x="640" y="420" />
            </Array>
          </mxGeometry>
        </mxCell>
        <mxCell id="BpiLgZ1GPIjB9515_VA2-117" style="edgeStyle=orthogonalEdgeStyle;rounded=0;orthogonalLoop=1;jettySize=auto;html=1;entryX=0.5;entryY=0;entryDx=0;entryDy=0;" edge="1" parent="1" source="BpiLgZ1GPIjB9515_VA2-21" target="BpiLgZ1GPIjB9515_VA2-115">
          <mxGeometry relative="1" as="geometry" />
        </mxCell>
        <mxCell id="BpiLgZ1GPIjB9515_VA2-21" value="event info" style="shape=parallelogram;perimeter=parallelogramPerimeter;whiteSpace=wrap;html=1;fixedSize=1;fillColor=#d5e8d4;strokeColor=#82b366;" vertex="1" parent="1">
          <mxGeometry x="460" y="473.75" width="140" height="70" as="geometry" />
        </mxCell>
        <mxCell id="BpiLgZ1GPIjB9515_VA2-77" style="edgeStyle=orthogonalEdgeStyle;rounded=0;orthogonalLoop=1;jettySize=auto;html=1;" edge="1" parent="1" source="BpiLgZ1GPIjB9515_VA2-27">
          <mxGeometry relative="1" as="geometry">
            <mxPoint x="325" y="340" as="targetPoint" />
          </mxGeometry>
        </mxCell>
        <mxCell id="BpiLgZ1GPIjB9515_VA2-98" style="edgeStyle=orthogonalEdgeStyle;rounded=0;orthogonalLoop=1;jettySize=auto;html=1;entryX=0.076;entryY=0.418;entryDx=0;entryDy=0;entryPerimeter=0;" edge="1" parent="1" source="BpiLgZ1GPIjB9515_VA2-27" target="BpiLgZ1GPIjB9515_VA2-21">
          <mxGeometry relative="1" as="geometry" />
        </mxCell>
        <mxCell id="BpiLgZ1GPIjB9515_VA2-27" value="matches stored&lt;br&gt;username and &lt;br&gt;password?" style="rhombus;whiteSpace=wrap;html=1;fillColor=#f8cecc;strokeColor=#b85450;" vertex="1" parent="1">
          <mxGeometry x="250" y="433.75" width="150" height="140" as="geometry" />
        </mxCell>
        <mxCell id="BpiLgZ1GPIjB9515_VA2-82" style="edgeStyle=orthogonalEdgeStyle;rounded=0;orthogonalLoop=1;jettySize=auto;html=1;" edge="1" parent="1" source="BpiLgZ1GPIjB9515_VA2-51">
          <mxGeometry relative="1" as="geometry">
            <mxPoint x="270" y="140" as="targetPoint" />
          </mxGeometry>
        </mxCell>
        <mxCell id="BpiLgZ1GPIjB9515_VA2-51" value="Open application" style="rounded=1;whiteSpace=wrap;html=1;fillColor=#fff2cc;strokeColor=#d6b656;" vertex="1" parent="1">
          <mxGeometry x="70" y="40" width="120" height="60" as="geometry" />
        </mxCell>
        <mxCell id="BpiLgZ1GPIjB9515_VA2-54" value="no" style="text;html=1;align=center;verticalAlign=middle;resizable=0;points=[];autosize=1;strokeColor=none;" vertex="1" parent="1">
          <mxGeometry x="290" y="410" width="30" height="20" as="geometry" />
        </mxCell>
        <mxCell id="BpiLgZ1GPIjB9515_VA2-79" style="edgeStyle=orthogonalEdgeStyle;rounded=0;orthogonalLoop=1;jettySize=auto;html=1;entryX=0.5;entryY=0;entryDx=0;entryDy=0;" edge="1" parent="1" target="BpiLgZ1GPIjB9515_VA2-5">
          <mxGeometry relative="1" as="geometry">
            <mxPoint x="110" y="340" as="sourcePoint" />
          </mxGeometry>
        </mxCell>
        <mxCell id="BpiLgZ1GPIjB9515_VA2-60" value="login screen" style="swimlane;fillColor=#dae8fc;strokeColor=#6c8ebf;" vertex="1" parent="1">
          <mxGeometry x="20" y="140.5" width="460" height="199.5" as="geometry" />
        </mxCell>
        <mxCell id="BpiLgZ1GPIjB9515_VA2-66" value="create account" style="swimlane;html=1;fontStyle=0;childLayout=stackLayout;horizontal=1;startSize=26;fillColor=#e1d5e7;horizontalStack=0;resizeParent=1;resizeLast=0;collapsible=1;marginBottom=0;swimlaneFillColor=#ffffff;align=center;rounded=1;shadow=0;comic=0;labelBackgroundColor=none;strokeWidth=1;fontFamily=Verdana;fontSize=12;strokeColor=#9673a6;" vertex="1" parent="BpiLgZ1GPIjB9515_VA2-60">
          <mxGeometry x="280" y="39.5" width="160" height="140" as="geometry" />
        </mxCell>
        <mxCell id="BpiLgZ1GPIjB9515_VA2-67" value="" style="group" vertex="1" connectable="0" parent="BpiLgZ1GPIjB9515_VA2-66">
          <mxGeometry y="26" width="160" height="104" as="geometry" />
        </mxCell>
        <mxCell id="BpiLgZ1GPIjB9515_VA2-68" value="username" style="text;html=1;strokeColor=none;fillColor=none;spacingLeft=4;spacingRight=4;whiteSpace=wrap;overflow=hidden;rotatable=0;points=[[0,0.5],[1,0.5]];portConstraint=eastwest;" vertex="1" parent="BpiLgZ1GPIjB9515_VA2-67">
          <mxGeometry width="160" height="26" as="geometry" />
        </mxCell>
        <mxCell id="BpiLgZ1GPIjB9515_VA2-69" value="password" style="text;html=1;strokeColor=none;fillColor=none;spacingLeft=4;spacingRight=4;whiteSpace=wrap;overflow=hidden;rotatable=0;points=[[0,0.5],[1,0.5]];portConstraint=eastwest;" vertex="1" parent="BpiLgZ1GPIjB9515_VA2-67">
          <mxGeometry y="26" width="160" height="26" as="geometry" />
        </mxCell>
        <mxCell id="BpiLgZ1GPIjB9515_VA2-70" value="email" style="text;html=1;strokeColor=none;fillColor=none;spacingLeft=4;spacingRight=4;whiteSpace=wrap;overflow=hidden;rotatable=0;points=[[0,0.5],[1,0.5]];portConstraint=eastwest;" vertex="1" parent="BpiLgZ1GPIjB9515_VA2-67">
          <mxGeometry y="52" width="160" height="26" as="geometry" />
        </mxCell>
        <mxCell id="BpiLgZ1GPIjB9515_VA2-71" value="phone" style="text;html=1;strokeColor=none;fillColor=none;spacingLeft=4;spacingRight=4;whiteSpace=wrap;overflow=hidden;rotatable=0;points=[[0,0.5],[1,0.5]];portConstraint=eastwest;" vertex="1" parent="BpiLgZ1GPIjB9515_VA2-67">
          <mxGeometry y="78" width="160" height="26" as="geometry" />
        </mxCell>
        <mxCell id="BpiLgZ1GPIjB9515_VA2-43" value="new account" style="text;html=1;strokeColor=none;fillColor=none;align=center;verticalAlign=middle;whiteSpace=wrap;rounded=0;" vertex="1" parent="BpiLgZ1GPIjB9515_VA2-60">
          <mxGeometry x="180" y="75.5" width="110" height="20" as="geometry" />
        </mxCell>
        <mxCell id="BpiLgZ1GPIjB9515_VA2-134" style="edgeStyle=orthogonalEdgeStyle;rounded=0;orthogonalLoop=1;jettySize=auto;html=1;entryX=0.5;entryY=1;entryDx=0;entryDy=0;" edge="1" parent="1" source="BpiLgZ1GPIjB9515_VA2-61" target="BpiLgZ1GPIjB9515_VA2-133">
          <mxGeometry relative="1" as="geometry" />
        </mxCell>
        <mxCell id="BpiLgZ1GPIjB9515_VA2-61" value="event screen" style="swimlane;fillColor=#dae8fc;strokeColor=#6c8ebf;" vertex="1" parent="1">
          <mxGeometry x="520" y="140.5" width="560" height="219.5" as="geometry" />
        </mxCell>
        <mxCell id="21ea969265ad0168-18" value="display events" style="swimlane;html=1;fontStyle=0;childLayout=stackLayout;horizontal=1;startSize=26;fillColor=#dae8fc;horizontalStack=0;resizeParent=1;resizeLast=0;collapsible=1;marginBottom=0;swimlaneFillColor=#ffffff;align=center;rounded=1;shadow=0;comic=0;labelBackgroundColor=none;strokeWidth=1;fontFamily=Verdana;fontSize=12;strokeColor=#6c8ebf;" parent="BpiLgZ1GPIjB9515_VA2-61" vertex="1">
          <mxGeometry x="20" y="38" width="160" height="159" as="geometry" />
        </mxCell>
        <mxCell id="BpiLgZ1GPIjB9515_VA2-30" value="" style="group" vertex="1" connectable="0" parent="21ea969265ad0168-18">
          <mxGeometry y="26" width="160" height="130" as="geometry" />
        </mxCell>
        <mxCell id="21ea969265ad0168-19" value="event name" style="text;html=1;strokeColor=none;fillColor=none;spacingLeft=4;spacingRight=4;whiteSpace=wrap;overflow=hidden;rotatable=0;points=[[0,0.5],[1,0.5]];portConstraint=eastwest;" parent="BpiLgZ1GPIjB9515_VA2-30" vertex="1">
          <mxGeometry width="160" height="26" as="geometry" />
        </mxCell>
        <mxCell id="21ea969265ad0168-20" value="date" style="text;html=1;strokeColor=none;fillColor=none;spacingLeft=4;spacingRight=4;whiteSpace=wrap;overflow=hidden;rotatable=0;points=[[0,0.5],[1,0.5]];portConstraint=eastwest;" parent="BpiLgZ1GPIjB9515_VA2-30" vertex="1">
          <mxGeometry y="26" width="160" height="26" as="geometry" />
        </mxCell>
        <mxCell id="21ea969265ad0168-51" value="time" style="text;html=1;strokeColor=none;fillColor=none;spacingLeft=4;spacingRight=4;whiteSpace=wrap;overflow=hidden;rotatable=0;points=[[0,0.5],[1,0.5]];portConstraint=eastwest;" parent="BpiLgZ1GPIjB9515_VA2-30" vertex="1">
          <mxGeometry y="52" width="160" height="26" as="geometry" />
        </mxCell>
        <mxCell id="21ea969265ad0168-21" value="description" style="text;html=1;strokeColor=none;fillColor=none;spacingLeft=4;spacingRight=4;whiteSpace=wrap;overflow=hidden;rotatable=0;points=[[0,0.5],[1,0.5]];portConstraint=eastwest;" parent="BpiLgZ1GPIjB9515_VA2-30" vertex="1">
          <mxGeometry y="78" width="160" height="26" as="geometry" />
        </mxCell>
        <mxCell id="BpiLgZ1GPIjB9515_VA2-22" value="notification (Y/N)" style="text;html=1;strokeColor=none;fillColor=none;spacingLeft=4;spacingRight=4;whiteSpace=wrap;overflow=hidden;rotatable=0;points=[[0,0.5],[1,0.5]];portConstraint=eastwest;" vertex="1" parent="BpiLgZ1GPIjB9515_VA2-30">
          <mxGeometry y="104" width="160" height="26" as="geometry" />
        </mxCell>
        <mxCell id="BpiLgZ1GPIjB9515_VA2-6" value="add event" style="swimlane;html=1;fontStyle=0;childLayout=stackLayout;horizontal=1;startSize=26;fillColor=#e1d5e7;horizontalStack=0;resizeParent=1;resizeLast=0;collapsible=1;marginBottom=0;swimlaneFillColor=#ffffff;align=center;rounded=1;shadow=0;comic=0;labelBackgroundColor=none;strokeWidth=1;fontFamily=Verdana;fontSize=12;strokeColor=#9673a6;" vertex="1" parent="BpiLgZ1GPIjB9515_VA2-61">
          <mxGeometry x="200" y="39.75" width="160" height="140" as="geometry" />
        </mxCell>
        <mxCell id="BpiLgZ1GPIjB9515_VA2-31" value="" style="group" vertex="1" connectable="0" parent="BpiLgZ1GPIjB9515_VA2-6">
          <mxGeometry y="26" width="160" height="104" as="geometry" />
        </mxCell>
        <mxCell id="BpiLgZ1GPIjB9515_VA2-7" value="add name" style="text;html=1;strokeColor=none;fillColor=none;spacingLeft=4;spacingRight=4;whiteSpace=wrap;overflow=hidden;rotatable=0;points=[[0,0.5],[1,0.5]];portConstraint=eastwest;" vertex="1" parent="BpiLgZ1GPIjB9515_VA2-31">
          <mxGeometry width="160" height="26" as="geometry" />
        </mxCell>
        <mxCell id="BpiLgZ1GPIjB9515_VA2-8" value="add date" style="text;html=1;strokeColor=none;fillColor=none;spacingLeft=4;spacingRight=4;whiteSpace=wrap;overflow=hidden;rotatable=0;points=[[0,0.5],[1,0.5]];portConstraint=eastwest;" vertex="1" parent="BpiLgZ1GPIjB9515_VA2-31">
          <mxGeometry y="26" width="160" height="26" as="geometry" />
        </mxCell>
        <mxCell id="BpiLgZ1GPIjB9515_VA2-9" value="add time" style="text;html=1;strokeColor=none;fillColor=none;spacingLeft=4;spacingRight=4;whiteSpace=wrap;overflow=hidden;rotatable=0;points=[[0,0.5],[1,0.5]];portConstraint=eastwest;" vertex="1" parent="BpiLgZ1GPIjB9515_VA2-31">
          <mxGeometry y="52" width="160" height="26" as="geometry" />
        </mxCell>
        <mxCell id="BpiLgZ1GPIjB9515_VA2-10" value="add description" style="text;html=1;strokeColor=none;fillColor=none;spacingLeft=4;spacingRight=4;whiteSpace=wrap;overflow=hidden;rotatable=0;points=[[0,0.5],[1,0.5]];portConstraint=eastwest;" vertex="1" parent="BpiLgZ1GPIjB9515_VA2-31">
          <mxGeometry y="78" width="160" height="26" as="geometry" />
        </mxCell>
        <mxCell id="BpiLgZ1GPIjB9515_VA2-11" value="delete events" style="swimlane;html=1;fontStyle=0;childLayout=stackLayout;horizontal=1;startSize=26;fillColor=#e1d5e7;horizontalStack=0;resizeParent=1;resizeLast=0;collapsible=1;marginBottom=0;swimlaneFillColor=#ffffff;align=center;rounded=1;shadow=0;comic=0;labelBackgroundColor=none;strokeWidth=1;fontFamily=Verdana;fontSize=12;strokeColor=#9673a6;" vertex="1" parent="BpiLgZ1GPIjB9515_VA2-61">
          <mxGeometry x="380" y="38" width="160" height="140" as="geometry" />
        </mxCell>
        <mxCell id="BpiLgZ1GPIjB9515_VA2-12" value="delete event" style="text;html=1;strokeColor=none;fillColor=none;spacingLeft=4;spacingRight=4;whiteSpace=wrap;overflow=hidden;rotatable=0;points=[[0,0.5],[1,0.5]];portConstraint=eastwest;" vertex="1" parent="BpiLgZ1GPIjB9515_VA2-11">
          <mxGeometry y="26" width="160" height="26" as="geometry" />
        </mxCell>
        <mxCell id="BpiLgZ1GPIjB9515_VA2-72" style="edgeStyle=orthogonalEdgeStyle;rounded=0;orthogonalLoop=1;jettySize=auto;html=1;entryX=0;entryY=0.5;entryDx=0;entryDy=0;" edge="1" parent="1" source="21ea969265ad0168-8" target="BpiLgZ1GPIjB9515_VA2-69">
          <mxGeometry relative="1" as="geometry" />
        </mxCell>
        <mxCell id="BpiLgZ1GPIjB9515_VA2-92" value="yes" style="text;html=1;strokeColor=none;fillColor=none;align=center;verticalAlign=middle;whiteSpace=wrap;rounded=0;" vertex="1" parent="1">
          <mxGeometry x="410" y="473.75" width="40" height="20" as="geometry" />
        </mxCell>
        <mxCell id="BpiLgZ1GPIjB9515_VA2-104" style="edgeStyle=orthogonalEdgeStyle;rounded=0;orthogonalLoop=1;jettySize=auto;html=1;entryX=1;entryY=0.5;entryDx=0;entryDy=0;" edge="1" parent="1" source="BpiLgZ1GPIjB9515_VA2-11" target="BpiLgZ1GPIjB9515_VA2-21">
          <mxGeometry relative="1" as="geometry">
            <Array as="points">
              <mxPoint x="980" y="509" />
            </Array>
          </mxGeometry>
        </mxCell>
        <mxCell id="BpiLgZ1GPIjB9515_VA2-105" style="edgeStyle=orthogonalEdgeStyle;rounded=0;orthogonalLoop=1;jettySize=auto;html=1;" edge="1" parent="1" source="BpiLgZ1GPIjB9515_VA2-6">
          <mxGeometry relative="1" as="geometry">
            <mxPoint x="800" y="510" as="targetPoint" />
          </mxGeometry>
        </mxCell>
        <mxCell id="BpiLgZ1GPIjB9515_VA2-108" value="notification" style="swimlane;html=1;fontStyle=0;childLayout=stackLayout;horizontal=1;startSize=26;fillColor=#e1d5e7;horizontalStack=0;resizeParent=1;resizeLast=0;collapsible=1;marginBottom=0;swimlaneFillColor=#ffffff;align=center;rounded=1;shadow=0;comic=0;labelBackgroundColor=none;strokeWidth=1;fontFamily=Verdana;fontSize=12;strokeColor=#9673a6;" vertex="1" parent="1">
          <mxGeometry x="720" y="570" width="160" height="140" as="geometry" />
        </mxCell>
        <mxCell id="BpiLgZ1GPIjB9515_VA2-109" value="" style="group" vertex="1" connectable="0" parent="BpiLgZ1GPIjB9515_VA2-108">
          <mxGeometry y="26" width="160" height="104" as="geometry" />
        </mxCell>
        <mxCell id="BpiLgZ1GPIjB9515_VA2-110" value="event name" style="text;html=1;strokeColor=none;fillColor=none;spacingLeft=4;spacingRight=4;whiteSpace=wrap;overflow=hidden;rotatable=0;points=[[0,0.5],[1,0.5]];portConstraint=eastwest;" vertex="1" parent="BpiLgZ1GPIjB9515_VA2-109">
          <mxGeometry width="160" height="26" as="geometry" />
        </mxCell>
        <mxCell id="BpiLgZ1GPIjB9515_VA2-111" value="date" style="text;html=1;strokeColor=none;fillColor=none;spacingLeft=4;spacingRight=4;whiteSpace=wrap;overflow=hidden;rotatable=0;points=[[0,0.5],[1,0.5]];portConstraint=eastwest;" vertex="1" parent="BpiLgZ1GPIjB9515_VA2-109">
          <mxGeometry y="26" width="160" height="26" as="geometry" />
        </mxCell>
        <mxCell id="BpiLgZ1GPIjB9515_VA2-112" value="time" style="text;html=1;strokeColor=none;fillColor=none;spacingLeft=4;spacingRight=4;whiteSpace=wrap;overflow=hidden;rotatable=0;points=[[0,0.5],[1,0.5]];portConstraint=eastwest;" vertex="1" parent="BpiLgZ1GPIjB9515_VA2-109">
          <mxGeometry y="52" width="160" height="26" as="geometry" />
        </mxCell>
        <mxCell id="BpiLgZ1GPIjB9515_VA2-113" value="app link" style="text;html=1;strokeColor=none;fillColor=none;spacingLeft=4;spacingRight=4;whiteSpace=wrap;overflow=hidden;rotatable=0;points=[[0,0.5],[1,0.5]];portConstraint=eastwest;" vertex="1" parent="BpiLgZ1GPIjB9515_VA2-109">
          <mxGeometry y="78" width="160" height="26" as="geometry" />
        </mxCell>
        <mxCell id="BpiLgZ1GPIjB9515_VA2-118" style="edgeStyle=orthogonalEdgeStyle;rounded=0;orthogonalLoop=1;jettySize=auto;html=1;entryX=-0.019;entryY=0.115;entryDx=0;entryDy=0;entryPerimeter=0;" edge="1" parent="1" source="BpiLgZ1GPIjB9515_VA2-115" target="BpiLgZ1GPIjB9515_VA2-112">
          <mxGeometry relative="1" as="geometry">
            <mxPoint x="660" y="650" as="targetPoint" />
          </mxGeometry>
        </mxCell>
        <mxCell id="BpiLgZ1GPIjB9515_VA2-131" style="edgeStyle=orthogonalEdgeStyle;rounded=0;orthogonalLoop=1;jettySize=auto;html=1;entryX=1;entryY=0.5;entryDx=0;entryDy=0;" edge="1" parent="1" source="BpiLgZ1GPIjB9515_VA2-115" target="BpiLgZ1GPIjB9515_VA2-130">
          <mxGeometry relative="1" as="geometry" />
        </mxCell>
        <mxCell id="BpiLgZ1GPIjB9515_VA2-115" value="event(s) &lt;br&gt;occurring &lt;br&gt;today?" style="rhombus;whiteSpace=wrap;html=1;fillColor=#f8cecc;strokeColor=#b85450;" vertex="1" parent="1">
          <mxGeometry x="470" y="590" width="120" height="120" as="geometry" />
        </mxCell>
        <mxCell id="BpiLgZ1GPIjB9515_VA2-120" value="yes" style="text;html=1;strokeColor=none;fillColor=none;align=center;verticalAlign=middle;whiteSpace=wrap;rounded=0;" vertex="1" parent="1">
          <mxGeometry x="600" y="620" width="40" height="20" as="geometry" />
        </mxCell>
        <mxCell id="BpiLgZ1GPIjB9515_VA2-130" value="Null" style="rounded=1;whiteSpace=wrap;html=1;fillColor=#fff2cc;strokeColor=#d6b656;" vertex="1" parent="1">
          <mxGeometry x="280" y="620" width="120" height="60" as="geometry" />
        </mxCell>
        <mxCell id="BpiLgZ1GPIjB9515_VA2-132" value="no" style="text;html=1;align=center;verticalAlign=middle;resizable=0;points=[];autosize=1;strokeColor=none;" vertex="1" parent="1">
          <mxGeometry x="420" y="620" width="30" height="20" as="geometry" />
        </mxCell>
        <mxCell id="BpiLgZ1GPIjB9515_VA2-133" value="close application" style="rounded=1;whiteSpace=wrap;html=1;fillColor=#fff2cc;strokeColor=#d6b656;" vertex="1" parent="1">
          <mxGeometry x="740" y="40" width="120" height="60" as="geometry" />
        </mxCell>
      </root>
    </mxGraphModel>
  </diagram>
</mxfile>
